<svg width="456" height="82" viewBox="0 0 456 82" fill="none" xmlns="http://www.w3.org/2000/svg">
<path d="M85.275 81.2143H66.7143V49.3283H18.5607V81.2143H0V0H18.5607V31.936H66.7143V0H85.275V81.2143Z" fill="white"/>
<path d="M166.49 2.43643V78.7779C166.49 80.4021 165.684 81.2143 164.072 81.2143H152.993C151.381 81.2143 150.575 80.4021 150.575 78.7779V67.3063C150.575 65.682 149.77 64.8699 148.158 64.8699H107.567C105.955 64.8699 105.149 65.682 105.149 67.3063V78.5748C105.149 79.387 104.914 80.0299 104.444 80.5037C104.041 80.9774 103.471 81.2143 102.732 81.2143H91.7533C90.1417 81.2143 89.3359 80.4021 89.3359 78.7779V38.2722C89.3359 28.1881 93.1634 19.2884 100.818 11.573C108.473 3.85768 117.303 0 127.308 0H164.072C165.684 0 166.49 0.812142 166.49 2.43643ZM150.575 46.6982V18.3747C150.575 16.7504 149.77 15.9383 148.158 15.9383H133.05C123.985 15.9383 117.068 18.3747 112.301 23.2476C107.533 28.0528 105.149 35.0237 105.149 44.1603V46.6982C105.149 48.3225 105.955 49.1346 107.567 49.1346H148.158C149.77 49.1346 150.575 48.3225 150.575 46.6982Z" fill="white"/>
<path d="M186.793 2.43643V78.7779C186.793 80.4021 185.97 81.2143 184.325 81.2143H173.017C171.372 81.2143 170.55 80.4021 170.55 78.7779V2.43643C170.55 0.812142 171.372 0 173.017 0H184.325C185.97 0 186.793 0.812142 186.793 2.43643Z" fill="white"/>
<path d="M244.643 0C249.901 0 254.609 1.19888 258.767 3.59663C262.926 5.99439 266.183 9.28163 268.537 13.4584C270.891 17.6351 272.068 22.3533 272.068 27.6129V53.6014C272.068 58.861 270.891 63.5792 268.537 67.7559C266.183 71.9327 262.926 75.2199 258.767 77.6176C254.609 80.0154 249.901 81.2143 244.643 81.2143H190.854V0H244.643ZM256.767 27.6129C256.767 23.8229 255.668 20.8063 253.471 18.5633C251.274 16.3202 248.331 15.1987 244.643 15.1987H206.155V66.0156H244.643C248.331 66.0156 251.274 64.8941 253.471 62.651C255.668 60.408 256.767 57.3914 256.767 53.6014V27.6129Z" fill="white"/>
<path d="M276.13 4.85583C276.129 2.17435 278.303 0.000212271 280.984 1.57795e-05L281.2 0L353.282 0.000371573V15.1468H291.63V38.9321C291.63 59.2312 292.117 62.7155 292.117 62.7155L292.162 62.9662C292.328 63.8738 293.118 64.5334 294.041 64.5334C294.041 64.5334 297.427 65.0278 322.455 65.0278H350.871V81.2143H321.12C295.094 81.2143 290.94 80.7199 290.94 80.7199H288.866C281.831 80.7199 276.129 75.0174 276.129 67.983L276.129 51.7883L276.129 35.5936L276.13 4.85583Z" fill="white"/>
<path d="M296.412 31.5635L321.533 31.3352H347.081L347.119 36.4194V48.5592C347.119 48.5592 345.678 48.5592 321.533 48.5592H296.412V41.2753V33.9914V31.5635Z" fill="white"/>
<path d="M454.8 81.2143H428.369L406.071 55.7255L383.822 81.2143H357.343L393.048 40.832L357.343 0H383.293L406.167 25.9886L429.138 0H454.8L419.191 40.7821L454.8 81.2143Z" fill="white"/>
</svg>
