<svg width="134" height="33" viewBox="0 0 134 33" fill="none" xmlns="http://www.w3.org/2000/svg">
<path fill-rule="evenodd" clip-rule="evenodd" d="M36.0879 22.2609C36.0584 22.3736 35.9952 22.3968 35.7186 22.3968C35.4845 22.3968 35.3731 22.4276 35.3455 22.499C35.3229 22.5582 35.2212 22.6012 35.1038 22.6012C34.958 22.6012 34.8907 22.6393 34.8652 22.7371C34.8405 22.832 34.7725 22.873 34.6413 22.873C34.5364 22.873 34.4351 22.9184 34.4136 22.9752C34.3922 23.0311 34.3278 23.0774 34.2703 23.0774C34.2116 23.0774 34.1662 23.1366 34.1662 23.2133C34.1662 23.3041 34.1212 23.3491 34.0305 23.3491C33.9552 23.3491 33.8948 23.3946 33.8948 23.4514C33.8948 23.5073 33.8487 23.5536 33.7928 23.5536C33.7361 23.5536 33.6907 23.614 33.6907 23.6895C33.6907 23.7803 33.6458 23.8253 33.555 23.8253C33.4797 23.8253 33.4194 23.8708 33.4194 23.9275C33.4194 23.9835 33.3732 24.0298 33.3173 24.0298C33.2606 24.0298 33.2153 24.0902 33.2153 24.1656C33.2153 24.2565 33.1703 24.3015 33.0796 24.3015C33.0051 24.3015 32.9439 24.3445 32.9439 24.3964C32.9439 24.4488 32.8977 24.5088 32.8418 24.5303C32.7835 24.5526 32.7398 24.6544 32.7398 24.768C32.7398 24.9087 32.7009 24.9765 32.6041 25.0016C32.5065 25.0272 32.4684 25.0945 32.4684 25.2405C32.4684 25.3581 32.4255 25.46 32.3664 25.4827C32.3024 25.5074 32.2643 25.6113 32.2643 25.7621C32.2643 25.9268 32.2335 26.0023 32.1655 26.0023C32.0011 26.0023 31.9869 26.3166 32.0071 29.5396L32.0266 32.6349L80.8307 32.6535C130.442 32.6726 129.94 32.6742 129.94 32.4978C129.94 32.428 130.013 32.3968 130.177 32.3968C130.344 32.3968 130.415 32.3663 130.415 32.295C130.415 32.226 130.484 32.1927 130.625 32.1927C130.779 32.1927 130.845 32.1558 130.871 32.0569C130.898 31.9546 130.964 31.9206 131.137 31.9206C131.296 31.9206 131.366 31.8893 131.366 31.8188C131.366 31.7628 131.412 31.7166 131.468 31.7166C131.525 31.7166 131.57 31.6561 131.57 31.5807C131.57 31.474 131.615 31.4444 131.78 31.4444C131.933 31.4444 132 31.4075 132.026 31.3085C132.045 31.2339 132.098 31.1726 132.143 31.1726C132.258 31.1726 132.521 30.7962 132.521 30.6311C132.521 30.5374 132.565 30.492 132.657 30.492C132.732 30.492 132.793 30.4494 132.793 30.3975C132.793 30.3452 132.839 30.2851 132.895 30.2636C132.953 30.2409 132.997 30.1395 132.997 30.026C132.997 29.8848 133.036 29.8175 133.132 29.7923C133.231 29.7664 133.268 29.6994 133.268 29.5461C133.268 29.4046 133.302 29.3356 133.37 29.3356C133.448 29.3356 133.472 29.2488 133.472 28.9616C133.472 28.6327 133.488 28.5872 133.608 28.5872C133.742 28.5872 133.744 28.5422 133.744 25.3561V22.125H84.9338C36.1807 22.125 36.1236 22.125 36.0879 22.2609ZM40.7839 23.5451C40.8041 23.5779 40.692 23.6927 40.5344 23.8002C40.3773 23.9077 40.1954 24.0395 40.1306 24.0934C39.5661 24.5636 38.6495 24.7554 38.6495 24.4037C38.6495 24.31 38.6722 24.2334 38.7002 24.233C38.7476 24.2322 39.0315 24.0103 39.4595 23.6404C39.643 23.4822 40.698 23.4059 40.7839 23.5451ZM83.8172 24.6378C83.8727 24.7416 83.8609 24.7887 83.7617 24.8588C83.6924 24.9079 83.4563 25.1099 83.2372 25.3079C82.8391 25.6672 82.8375 25.668 82.4288 25.6482C81.9226 25.6234 81.9197 25.5812 82.3871 25.0746C82.9314 24.4845 83.6224 24.2731 83.8172 24.6378ZM99.1889 24.6447C99.048 25.1841 97.5872 25.9459 97.3697 25.5934C97.3276 25.5253 97.886 24.8077 98.0833 24.6759C98.4101 24.4577 99.244 24.4342 99.1889 24.6447ZM110.287 24.6126C110.314 24.6836 110.226 24.8163 110.027 25.004C109.357 25.636 109.312 25.6624 108.884 25.6624C108.347 25.6624 108.35 25.5914 108.917 25.0049L109.4 24.506H109.823C110.145 24.506 110.256 24.5311 110.287 24.6126ZM44.0697 24.7234C44.1908 24.8446 44.1859 29.4662 44.0644 29.6325C43.9951 29.7274 43.8959 29.7473 43.5719 29.7307L43.1665 29.71L43.1487 27.2613C43.1386 25.9142 43.1454 24.7741 43.1633 24.727C43.2062 24.6155 43.9591 24.6126 44.0697 24.7234ZM66.1195 24.6832C66.2005 24.7144 66.2268 24.8223 66.2268 25.1241C66.2268 25.5792 66.1693 25.6218 65.61 25.5816L65.3099 25.5601L65.2888 25.1943C65.2584 24.6552 65.5614 24.4686 66.1195 24.6832ZM74.7727 24.9765C74.8128 25.5378 74.7707 25.5942 74.311 25.5942C73.8404 25.5942 73.7663 25.5167 73.7663 25.026C73.7663 24.667 73.8007 24.6451 74.3438 24.6625L74.7512 24.6759L74.7727 24.9765ZM123.199 24.6848L123.351 24.7258V27.153C123.351 28.9507 123.33 29.6017 123.27 29.6621C123.185 29.7469 122.56 29.7749 122.372 29.7027C122.199 29.6358 122.21 24.7343 122.383 24.6889C122.565 24.641 123.028 24.639 123.199 24.6848ZM41.1213 25.0215C41.3805 25.6972 41.1974 25.7982 39.7135 25.7982C38.2263 25.7982 38.2417 25.793 38.2417 26.3138C38.2417 26.8115 38.2458 26.8131 39.6734 26.8342L40.9248 26.8528L40.9467 27.1185C40.9584 27.2645 40.9503 27.4556 40.9285 27.5436L40.8884 27.703H39.6414C38.1769 27.703 38.2121 27.6868 38.2539 28.3463C38.2899 28.915 38.166 28.8712 39.72 28.8627C41.291 28.8537 41.2938 28.8545 41.1905 29.39L41.1285 29.71H39.1586H37.1891L37.1713 27.3976C37.1612 26.1256 37.1681 25.0462 37.1859 24.9996C37.241 24.856 41.0662 24.8775 41.1213 25.0215ZM58.4763 25.2239C58.4986 25.2466 58.5326 25.4539 58.5512 25.6847L58.5853 26.1045L58.8688 26.1252C59.2308 26.1515 59.3114 26.2546 59.2855 26.6602L59.2644 26.9887L58.9251 27.0228L58.5853 27.0569L58.5662 27.9318C58.5448 28.9227 58.5719 28.9957 58.9672 28.9957H59.2304V29.3246C59.2304 29.7055 59.0943 29.8118 58.6067 29.8118C57.6619 29.8118 57.4371 29.4942 57.414 28.1277C57.3958 27.0309 57.3933 27.0228 57.1346 27.0228C56.8855 27.0228 56.7854 26.908 56.7854 26.6233C56.7854 26.3296 56.9503 26.1385 57.2034 26.1385C57.3885 26.1385 57.3966 26.1248 57.3974 25.8153C57.3986 25.3614 57.4557 25.1979 57.6242 25.1651C57.8125 25.1282 58.4224 25.1703 58.4763 25.2239ZM78.2598 25.2377C78.2873 25.2653 78.3193 25.4717 78.3306 25.6964L78.3513 26.1045L78.6409 26.1256C79.286 26.1722 79.3298 26.9587 78.6911 27.0228L78.3513 27.0569L78.3322 27.9318C78.3108 28.9085 78.3412 28.9957 78.7008 28.9957C79.0981 28.9957 79.1941 29.564 78.8251 29.7323C78.3651 29.942 77.6304 29.7688 77.3947 29.3952C77.2477 29.1616 77.2327 29.0565 77.2153 28.1399C77.195 27.0658 77.1978 27.0739 76.8131 26.9932C76.4559 26.9185 76.5486 26.1385 76.9152 26.1385C77.1545 26.1385 77.2306 26.0055 77.2306 25.5853C77.2306 25.2348 77.246 25.1927 77.3833 25.1671C77.596 25.1282 78.199 25.1764 78.2598 25.2377ZM48.7458 26.2586C49.382 26.5503 49.6817 26.9498 49.7972 27.6588C49.8944 28.2542 49.9243 28.2413 48.4064 28.2628L47.1059 28.2814L47.1282 28.4514C47.1971 28.9791 48.1877 29.2305 48.6275 28.8318C48.7583 28.713 49.6821 28.6732 49.7498 28.7832C49.8239 28.9032 49.3233 29.4476 48.9641 29.6374C47.221 30.5581 45.3324 28.8193 46.223 27.1132C46.673 26.2505 47.8548 25.8502 48.7458 26.2586ZM54.3931 26.3069C54.9423 26.5957 55.2473 26.9579 55.2104 27.2779C55.1731 27.602 54.4798 27.5947 54.1708 27.2662C53.771 26.8419 52.9946 26.8658 52.7614 27.31C52.1688 28.4388 53.2267 29.5725 54.1189 28.7649C54.7163 28.2246 55.47 28.4769 55.0913 29.0906C54.3656 30.2673 52.0429 30.047 51.68 28.7669C51.6359 28.612 51.5747 28.4562 51.5435 28.4209C51.3718 28.2242 51.5747 27.3298 51.9003 26.8488C52.3556 26.1759 53.6208 25.9009 54.3931 26.3069ZM61.9261 26.1803C62.0091 26.2026 62.1051 26.3073 62.1436 26.4172C62.2177 26.631 62.3181 26.6732 62.3785 26.5158C62.4425 26.3478 62.9528 26.1288 63.2258 26.1515L63.4756 26.1726L63.4959 26.5941L63.5161 27.0155L63.2606 27.0633C62.4105 27.2232 62.1971 27.5562 62.1513 28.7917L62.1173 29.71L61.6868 29.7303C61.0371 29.7611 61.0647 29.8365 61.0647 28.0161C61.0647 26.0805 61.1193 25.9633 61.9261 26.1803ZM66.1519 26.2318C66.2061 26.2975 66.224 26.8261 66.211 28.0178L66.1928 29.71H65.7513H65.3099L65.2904 28.0774C65.2669 26.044 65.2463 26.1385 65.7104 26.1385C65.936 26.1385 66.1037 26.1738 66.1519 26.2318ZM70.8892 26.2586C71.4493 26.5154 71.8644 26.953 71.8644 27.2864C71.8644 27.6101 71.0548 27.5951 70.7636 27.2653C70.0654 26.476 69.1177 27.1019 69.2518 28.264C69.3384 29.0168 70.2408 29.2991 70.7644 28.7377C71.0018 28.483 71.7567 28.4043 71.8413 28.625C72.0309 29.1198 70.9446 29.8812 70.05 29.8803C68.0124 29.8787 67.3628 27.1927 69.1813 26.2882C69.5539 26.1033 70.5137 26.0866 70.8892 26.2586ZM74.7148 26.27C74.7901 26.4111 74.8164 29.4471 74.7439 29.6362C74.6933 29.7684 73.9749 29.7895 73.8477 29.6621C73.7424 29.5567 73.7323 26.4655 73.8368 26.27C73.893 26.1649 73.9805 26.1385 74.2758 26.1385C74.571 26.1385 74.6585 26.1649 74.7148 26.27ZM83.4887 26.3053C84.0468 26.6176 84.3947 27.1364 84.4818 27.7862C84.5409 28.2275 84.4765 28.2473 82.991 28.2473H81.7136L81.716 28.4003C81.7245 28.9442 82.6597 29.2139 83.2332 28.8375C83.4267 28.7106 84.1983 28.6676 84.3084 28.7779C84.4846 28.9543 83.9302 29.5124 83.3514 29.7408C81.8869 30.3188 80.2645 29.0464 80.6829 27.6474C80.7266 27.501 80.7627 27.329 80.7627 27.2653C80.7627 26.4476 82.592 25.8031 83.4887 26.3053ZM92.7579 26.2781L93.0062 26.418L93.1548 26.2781C93.3598 26.0854 93.9041 26.0801 94.0053 26.27C94.0819 26.4132 94.1046 29.5275 94.0321 29.9663C93.9539 30.4393 93.6096 30.9126 93.1929 31.1207C92.1035 31.6638 90.2036 31.1004 90.2858 30.2584C90.317 29.9363 91.0011 29.9059 91.3178 30.2125C91.8325 30.7102 92.6211 30.6441 92.9013 30.0799C93.0921 29.6958 93.1095 29.4411 92.9382 29.5376C92.4497 29.8122 91.8564 29.8852 91.3493 29.7331C89.8828 29.293 89.8006 27.0321 91.223 26.2716C91.5709 26.0854 92.4218 26.0891 92.7579 26.2781ZM98.7426 26.2728C99.3481 26.5657 99.807 27.2909 99.7681 27.8936L99.7474 28.2133L98.4247 28.2319C96.878 28.2534 96.778 28.3078 97.3081 28.8408C97.5361 29.0699 98.2951 29.0642 98.5523 28.8314C98.6697 28.7247 99.5692 28.6696 99.6628 28.7633C99.8122 28.913 99.1444 29.5696 98.6422 29.7664C96.6702 30.5387 95.0045 28.0125 96.5499 26.5928C97.053 26.1308 98.1258 25.9743 98.7426 26.2728ZM102.598 26.3126L102.759 26.487L103.035 26.3126C103.397 26.0838 104.173 26.0623 104.517 26.272C105.133 26.6488 105.208 26.8747 105.219 28.3779C105.228 29.8033 105.248 29.7441 104.765 29.7441C104.117 29.7441 104.129 29.7668 104.129 28.5203C104.129 27.1128 104.078 27.0017 103.443 27.0106C102.823 27.0191 102.681 27.3156 102.659 28.6477C102.65 29.1859 102.618 29.6508 102.588 29.68C102.514 29.7518 101.867 29.7818 101.765 29.7181C101.648 29.6463 101.649 26.3365 101.765 26.2201C101.92 26.0647 102.42 26.1203 102.598 26.3126ZM109.894 26.2785C110.477 26.5604 110.921 27.2674 110.921 27.9143C110.921 28.2469 110.919 28.2473 109.459 28.2473C108.101 28.2473 108.053 28.2615 108.253 28.6063C108.494 29.0196 109.239 29.1604 109.635 28.8671C109.991 28.6031 110.928 28.6603 110.78 28.9369C110.361 29.7209 109.174 30.0986 108.258 29.7392C106.754 29.1498 106.699 26.9563 108.17 26.2756C108.572 26.0895 109.507 26.0911 109.894 26.2785ZM113.601 26.1807C113.662 26.2039 113.758 26.3142 113.816 26.4257L113.92 26.6285L114.068 26.4935C114.318 26.2643 114.653 26.1296 114.916 26.1515L115.166 26.1726V26.579C115.166 26.9717 115.159 26.9875 114.962 27.0467C113.99 27.3392 113.842 27.5541 113.842 28.6765C113.842 29.7745 113.856 29.7441 113.339 29.7441C112.732 29.7441 112.755 29.8134 112.755 27.9841C112.755 26.1033 112.854 25.8936 113.601 26.1807ZM119.422 26.2574C120.123 26.6083 120.227 26.8926 120.227 28.4497C120.227 29.2387 120.202 29.6053 120.145 29.6621C120.042 29.766 119.472 29.7684 119.248 29.6662C119.108 29.6025 119.017 29.6147 118.739 29.7343C117.539 30.2515 116.219 29.3478 116.655 28.3066C116.882 27.7634 117.317 27.5525 118.291 27.514C119.104 27.4815 119.178 27.4544 119.116 27.2094C119.018 26.8175 118.154 26.7693 117.881 27.1404C117.732 27.3424 116.763 27.3311 116.763 27.127C116.763 26.4026 118.546 25.8193 119.422 26.2574ZM127.981 26.2712C128.34 26.4302 128.773 26.8463 128.83 27.0873C128.853 27.1826 128.899 27.2958 128.933 27.3388C129.05 27.4888 129.08 28.0754 128.975 28.163C128.908 28.2181 128.463 28.2502 127.592 28.2628C126.151 28.2834 126.087 28.3098 126.456 28.7231C126.753 29.0561 127.517 29.1129 127.835 28.8253C127.969 28.7037 128.82 28.6818 128.891 28.7982C128.948 28.8898 128.7 29.2435 128.421 29.4711C127.96 29.8463 126.899 30.0114 126.451 29.7773C126.344 29.7217 126.228 29.6759 126.192 29.6759C125.511 29.6759 124.906 27.6896 125.396 27.0605C126.097 26.1605 127.064 25.8652 127.981 26.2712ZM47.4858 27.009C46.8577 27.3229 47.0193 27.5671 47.8556 27.5671C48.6044 27.5671 48.811 27.4986 48.6988 27.2885C48.504 26.9238 47.9236 26.79 47.4858 27.009ZM82.117 26.9936C81.8647 27.1274 81.6909 27.342 81.7371 27.4625C81.7845 27.5862 83.2356 27.6194 83.3101 27.4982C83.5365 27.1311 82.6022 26.736 82.117 26.9936ZM97.4357 26.9887C97.1692 27.1059 96.991 27.4106 97.1356 27.5022C97.2615 27.5821 98.4259 27.5846 98.5511 27.5051C99.014 27.2118 97.9978 26.7413 97.4357 26.9887ZM108.599 26.979C108.322 27.1023 108.119 27.3623 108.213 27.475C108.319 27.6032 109.65 27.6052 109.756 27.4775C110.03 27.1473 109.11 26.7514 108.599 26.979ZM126.661 27.0005C126.392 27.142 126.217 27.4219 126.345 27.5051C126.589 27.6624 127.868 27.5452 127.868 27.3651C127.868 27.0053 127.095 26.7717 126.661 27.0005ZM91.5636 27.2155C90.7301 28.0502 91.7029 29.4695 92.6697 28.8294C93.1407 28.5175 93.1876 27.6612 92.7604 27.1757C92.5433 26.9291 91.826 26.9526 91.5636 27.2155ZM117.935 28.255C117.586 28.356 117.532 28.8115 117.85 28.9799C118.392 29.2666 119.411 28.6899 119.075 28.2855C118.975 28.1646 118.309 28.1472 117.935 28.255Z" fill="white"/>
<path d="M51.125 18.2143H46.9623V11.0631H36.1627V18.2143H32V0H36.1627V7.16242H46.9623V0H51.125V18.2143Z" fill="white"/>
<path d="M69.3397 0.546428V17.6679C69.3397 18.0321 69.159 18.2143 68.7976 18.2143H66.3127C65.9513 18.2143 65.7706 18.0321 65.7706 17.6679V15.0951C65.7706 14.7308 65.5898 14.5487 65.2284 14.5487H56.1248C55.7634 14.5487 55.5827 14.7308 55.5827 15.0951V17.6223C55.5827 17.8045 55.53 17.9487 55.4246 18.0549C55.3342 18.1612 55.2062 18.2143 55.0405 18.2143H52.5783C52.2168 18.2143 52.0361 18.0321 52.0361 17.6679V8.58348C52.0361 6.32188 52.8945 4.32589 54.6113 2.59553C56.3281 0.865178 58.3085 0 60.5524 0H68.7976C69.159 0 69.3397 0.182143 69.3397 0.546428ZM65.7706 10.4732V4.12098C65.7706 3.7567 65.5898 3.57455 65.2284 3.57455H61.84C59.8069 3.57455 58.2558 4.12098 57.1865 5.21384C56.1173 6.29152 55.5827 7.85491 55.5827 9.90402V10.4732C55.5827 10.8375 55.7634 11.0196 56.1248 11.0196H65.2284C65.5898 11.0196 65.7706 10.8375 65.7706 10.4732Z" fill="white"/>
<path d="M73.8929 0.546428V17.6679C73.8929 18.0321 73.7084 18.2143 73.3395 18.2143H70.8033C70.4344 18.2143 70.25 18.0321 70.25 17.6679V0.546428C70.25 0.182143 70.4344 0 70.8033 0H73.3395C73.7084 0 73.8929 0.182143 73.8929 0.546428Z" fill="white"/>
<path d="M86.8674 0C88.0465 0 89.1024 0.268878 90.0351 0.806633C90.9678 1.34439 91.6981 2.08163 92.2261 3.01837C92.754 3.9551 93.018 5.01327 93.018 6.19286V12.0214C93.018 13.201 92.754 14.2592 92.2261 15.1959C91.6981 16.1327 90.9678 16.8699 90.0351 17.4077C89.1024 17.9454 88.0465 18.2143 86.8674 18.2143H74.8037V0H86.8674ZM89.5863 6.19286C89.5863 5.34286 89.3399 4.66633 88.8472 4.16327C88.3544 3.6602 87.6945 3.40867 86.8674 3.40867H78.2354V14.8056H86.8674C87.6945 14.8056 88.3544 14.5541 88.8472 14.051C89.3399 13.548 89.5863 12.8714 89.5863 12.0214V6.19286Z" fill="white"/>
<path d="M93.9289 1.08904C93.9288 0.48765 94.4163 4.76068e-05 95.0177 3.53888e-06L95.066 0L111.232 8.33343e-05V3.39704H97.4052V8.73148C97.4052 13.284 97.5144 14.0655 97.5144 14.0655L97.5246 14.1217C97.5617 14.3253 97.739 14.4732 97.9459 14.4732C97.9459 14.4732 98.7054 14.5841 104.319 14.5841H110.692V18.2143H104.019C98.1822 18.2143 97.2504 18.1034 97.2504 18.1034H96.7853C95.2076 18.1034 93.9287 16.8245 93.9287 15.2468L93.9287 11.6148L93.9287 7.98273L93.9289 1.08904Z" fill="white"/>
<path d="M98.4777 7.07888L104.112 7.02769H109.842L109.85 8.16794V10.8906C109.85 10.8906 109.527 10.8906 104.112 10.8906H98.4777V9.257V7.62341V7.07888Z" fill="white"/>
<path d="M134 18.2143H128.072L123.071 12.4978L118.081 18.2143H112.143L120.15 9.15758L112.143 0H117.963L123.093 5.82857L128.244 0H134L126.013 9.14637L134 18.2143Z" fill="white"/>
<path d="M15.0277 0.312744C15.2687 0.312744 15.3453 0.290021 15.3453 0.218872C15.3453 0.13692 15.737 0.125 18.4957 0.125C21.2544 0.125 21.6461 0.13692 21.6461 0.218872C21.6461 0.290021 21.7227 0.312744 21.9637 0.312744C22.2289 0.312744 22.2869 0.333233 22.3141 0.437535C22.3357 0.520232 22.3993 0.562325 22.5023 0.562325C22.6663 0.562325 22.9531 0.789928 22.955 0.921796C22.9553 0.964635 23.0122 0.999651 23.0807 0.999651C23.164 0.999651 23.2053 1.04137 23.2053 1.12481C23.2053 1.1941 23.2469 1.2496 23.299 1.2496C23.3604 1.2496 23.3927 1.31144 23.3927 1.4299C23.3927 1.5573 23.4288 1.6195 23.5173 1.6426C23.5861 1.66048 23.6419 1.72008 23.6419 1.77484C23.6419 1.8296 23.6843 1.8743 23.7357 1.8743C23.8011 1.8743 23.8294 1.94024 23.8294 2.09296C23.8294 2.27028 23.8532 2.31163 23.954 2.31163C24.0514 2.31163 24.0786 2.35335 24.0786 2.50123C24.0786 2.61187 24.1177 2.70537 24.1723 2.7266C24.2237 2.74634 24.2661 2.81563 24.2661 2.88082C24.2661 2.95756 24.31 2.99891 24.3907 2.99891C24.4918 2.99891 24.5153 3.04063 24.5153 3.21757C24.5153 3.3703 24.5435 3.43623 24.609 3.43623C24.6745 3.43623 24.7027 3.50216 24.7027 3.65489C24.7027 3.83221 24.7265 3.87356 24.8273 3.87356C24.9077 3.87356 24.9519 3.91528 24.9519 3.9909C24.9519 4.05534 24.9943 4.14325 25.0457 4.18609C25.097 4.22893 25.1394 4.30976 25.1394 4.36601C25.1394 4.42226 25.1956 4.50347 25.264 4.54631C25.3347 4.59064 25.3886 4.69196 25.3886 4.78024C25.3886 4.87672 25.4243 4.93558 25.4823 4.93558C25.5478 4.93558 25.576 5.00189 25.576 5.15424C25.576 5.33156 25.5999 5.3729 25.7007 5.3729C25.8018 5.3729 25.8253 5.41463 25.8253 5.59157C25.8253 5.7443 25.8535 5.81023 25.919 5.81023C25.977 5.81023 26.0127 5.86946 26.0127 5.96594C26.0127 6.05422 26.0666 6.15555 26.1373 6.19987C26.2061 6.24271 26.2619 6.32727 26.2619 6.38762C26.2619 6.44834 26.3043 6.49751 26.3556 6.49751C26.4211 6.49751 26.4494 6.56344 26.4494 6.71617C26.4494 6.89349 26.4732 6.93483 26.574 6.93483C26.6751 6.93483 26.6986 6.97656 26.6986 7.1535C26.6986 7.30623 26.7268 7.37216 26.7923 7.37216C26.8436 7.37216 26.886 7.41239 26.886 7.46193C26.886 7.51111 26.9422 7.56922 27.0106 7.59082C27.0981 7.61876 27.1356 7.68544 27.1356 7.81395C27.1356 7.92869 27.168 7.99723 27.2223 7.99723C27.3179 7.99723 27.3848 8.12835 27.3848 8.31461C27.3848 8.38054 27.4272 8.43455 27.4785 8.43455C27.5299 8.43455 27.5723 8.48745 27.5723 8.55264C27.5723 8.61783 27.6117 8.686 27.6597 8.70462C27.708 8.72325 27.7664 8.82457 27.7895 8.92999C27.8126 9.03541 27.8713 9.12146 27.92 9.12146C27.9799 9.12146 28.0089 9.19298 28.0089 9.34012C28.0089 9.51744 28.0324 9.55879 28.1335 9.55879C28.2038 9.55879 28.2581 9.60051 28.2581 9.65452C28.2581 9.70704 28.3006 9.76627 28.3519 9.78639C28.4051 9.80688 28.4456 9.90001 28.4456 10.0028C28.4456 10.1157 28.478 10.1839 28.5323 10.1839C28.6279 10.1839 28.6948 10.315 28.6948 10.5012C28.6948 10.5672 28.7372 10.6212 28.7885 10.6212C28.841 10.6212 28.8823 10.6767 28.8823 10.7486C28.8823 10.8186 28.9381 10.9363 29.0069 11.0101C29.0753 11.0838 29.1315 11.1781 29.1315 11.2198C29.1315 11.2612 29.1739 11.3111 29.2252 11.3308C29.2765 11.3506 29.3189 11.4418 29.3189 11.5338C29.3189 11.6255 29.3628 11.7327 29.4164 11.7722C29.4703 11.8113 29.5306 11.9693 29.5503 12.1228C29.5704 12.2759 29.6247 12.4241 29.6712 12.4517C29.7924 12.5236 29.7924 14.0289 29.6712 14.1008C29.6247 14.1284 29.5704 14.2762 29.5503 14.4297C29.5306 14.5832 29.4703 14.7411 29.4164 14.7802C29.3628 14.8197 29.3189 14.927 29.3189 15.0186C29.3189 15.1107 29.2784 15.2012 29.2289 15.2202C29.1795 15.2392 29.1218 15.3342 29.1006 15.4318C29.079 15.529 29.0214 15.624 28.9719 15.643C28.9224 15.662 28.8823 15.7205 28.8823 15.7734C28.8823 15.8259 28.8399 15.8691 28.7885 15.8691C28.7227 15.8691 28.6948 15.9354 28.6948 16.0933C28.6948 16.2654 28.6658 16.3258 28.5702 16.3507C28.4817 16.3738 28.4456 16.4357 28.4456 16.5634C28.4456 16.6819 28.4132 16.7437 28.3519 16.7437C28.2998 16.7437 28.2581 16.7992 28.2581 16.8685C28.2581 16.952 28.2169 16.9933 28.1335 16.9933C28.0324 16.9933 28.0089 17.035 28.0089 17.212C28.0089 17.3573 27.9796 17.4306 27.9223 17.4306C27.8724 17.4306 27.8181 17.5241 27.7947 17.6493C27.7702 17.7804 27.7173 17.868 27.6627 17.868C27.6128 17.868 27.5723 17.9242 27.5723 17.9931C27.5723 18.0624 27.5306 18.1179 27.4785 18.1179C27.4205 18.1179 27.3848 18.1771 27.3848 18.2736C27.3848 18.3615 27.3309 18.4632 27.2602 18.5076C27.1843 18.5549 27.1356 18.6532 27.1356 18.7579C27.1356 18.8737 27.1029 18.9304 27.0359 18.9304C26.9813 18.9304 26.9217 18.9866 26.9039 19.0552C26.886 19.1241 26.8325 19.1799 26.7852 19.1799C26.728 19.1799 26.6986 19.2541 26.6986 19.3986C26.6986 19.5759 26.6751 19.6173 26.574 19.6173C26.4732 19.6173 26.4494 19.659 26.4494 19.8359C26.4494 19.9887 26.4211 20.0546 26.3556 20.0546C26.3036 20.0546 26.2619 20.1105 26.2619 20.1798C26.2619 20.2483 26.2061 20.3608 26.1373 20.4297C26.0689 20.4983 26.0127 20.5966 26.0127 20.6484C26.0127 20.6998 25.9703 20.7419 25.919 20.7419C25.8535 20.7419 25.8253 20.8078 25.8253 20.9605C25.8253 21.1379 25.8018 21.1792 25.7007 21.1792C25.5999 21.1792 25.576 21.2209 25.576 21.3979C25.576 21.5506 25.5478 21.6165 25.4823 21.6165C25.4206 21.6165 25.3886 21.6787 25.3886 21.7998C25.3886 21.9283 25.3514 21.995 25.264 22.0226C25.1837 22.0483 25.1394 22.1172 25.1394 22.2163C25.1394 22.3008 25.097 22.3865 25.0457 22.4062C24.9943 22.426 24.9519 22.4953 24.9519 22.5605C24.9519 22.6372 24.908 22.6789 24.8273 22.6789C24.7265 22.6789 24.7027 22.7203 24.7027 22.8976C24.7027 23.0499 24.6745 23.1162 24.609 23.1162C24.5435 23.1162 24.5153 23.1822 24.5153 23.3349C24.5153 23.5119 24.4918 23.5536 24.3907 23.5536C24.2932 23.5536 24.2661 23.5949 24.2661 23.7428C24.2661 23.8534 24.227 23.9469 24.1723 23.9682C24.121 23.9879 24.0786 24.0572 24.0786 24.1224C24.0786 24.1991 24.0347 24.2405 23.954 24.2405C23.8532 24.2405 23.8294 24.2822 23.8294 24.4591C23.8294 24.6119 23.8011 24.6778 23.7357 24.6778C23.6843 24.6778 23.6419 24.7203 23.6419 24.7717C23.6419 24.8238 23.5865 24.8655 23.5173 24.8655C23.4162 24.8655 23.3927 24.9069 23.3927 25.0842C23.3927 25.2366 23.3645 25.3029 23.299 25.3029C23.2469 25.3029 23.2053 25.3584 23.2053 25.4277C23.2053 25.5111 23.164 25.5525 23.0807 25.5525C23.0115 25.5525 22.9561 25.5942 22.9561 25.6463C22.9561 25.6977 22.917 25.7402 22.8698 25.7402C22.8222 25.7402 22.7686 25.7961 22.7508 25.865C22.7236 25.9693 22.6656 25.9898 22.4004 25.9898H22.0827L22.0805 18.7583C22.079 12.499 22.0664 11.5107 21.9872 11.4057C21.9224 11.3204 21.8953 11.1211 21.8953 10.7341C21.8953 10.2252 21.886 10.1839 21.7707 10.1839C21.6703 10.1839 21.6461 10.1421 21.6461 9.97153C21.6461 9.84078 21.61 9.74579 21.5523 9.72381C21.4884 9.69922 21.4586 9.59864 21.4586 9.40457C21.4586 9.19224 21.4348 9.12146 21.3634 9.12146C21.3106 9.12146 21.2496 9.07229 21.2276 9.01231C21.2057 8.95197 21.1503 8.88045 21.1049 8.85288C21.0592 8.82532 21.022 8.7199 21.022 8.61857C21.022 8.4759 20.9941 8.43455 20.8974 8.43455C20.8289 8.43455 20.7728 8.39507 20.7728 8.34739C20.7728 8.29933 20.7304 8.2442 20.679 8.22446C20.6277 8.20472 20.5853 8.14549 20.5853 8.09259C20.5853 8.04007 20.5433 7.99723 20.4919 7.99723C20.4406 7.99723 20.3982 7.95216 20.3982 7.8974C20.3982 7.84264 20.342 7.78304 20.2736 7.76516C20.2048 7.74728 20.1486 7.69363 20.1486 7.64633C20.1486 7.59864 20.1066 7.5599 20.0553 7.5599C20.0036 7.5599 19.9615 7.51744 19.9615 7.46603C19.9615 7.41463 19.9169 7.37216 19.8622 7.37216C19.8076 7.37216 19.748 7.31591 19.7302 7.24737C19.712 7.17808 19.645 7.12221 19.5799 7.12221C19.5156 7.12221 19.4628 7.08011 19.4628 7.02871C19.4628 6.97656 19.407 6.93483 19.3378 6.93483C19.2694 6.93483 19.157 6.87858 19.0882 6.81004C19.0198 6.74113 18.9353 6.68488 18.9011 6.68488C18.8669 6.68488 18.8386 6.64651 18.8386 6.59958C18.8386 6.5437 18.7364 6.50235 18.5463 6.48075C18.3823 6.46249 18.2216 6.40401 18.1807 6.34776C18.1405 6.29263 18.0196 6.24756 17.9118 6.24756C17.7793 6.24756 17.7161 6.21738 17.7161 6.15405C17.7161 6.07993 17.6272 6.06018 17.2947 6.05981C17.0633 6.05944 16.7264 6.04156 16.5463 6.01995L16.2187 5.98047V9.63627C16.2187 13.7052 16.2201 13.6825 15.9657 13.6825C15.8452 13.6825 15.7783 13.7212 15.7511 13.8073C15.7232 13.8952 15.6567 13.932 15.5265 13.932C15.4197 13.932 15.3264 13.9719 15.3055 14.0259C15.2854 14.0784 15.1925 14.1198 15.0935 14.1198C14.9719 14.1198 14.905 14.1585 14.8778 14.2446C14.8503 14.3306 14.7833 14.3694 14.6617 14.3694C14.5628 14.3694 14.4698 14.4107 14.4497 14.4632C14.4289 14.5169 14.3359 14.5571 14.2317 14.5571C14.1027 14.5571 14.0406 14.5929 14.0175 14.6819C13.9941 14.7717 13.9323 14.8067 13.7984 14.8067C13.6905 14.8067 13.5972 14.8462 13.5764 14.9006C13.5555 14.9542 13.4625 14.9944 13.3584 14.9944C13.2293 14.9944 13.1672 15.0302 13.1442 15.1192C13.1207 15.209 13.059 15.244 12.9251 15.244C12.8172 15.244 12.7239 15.2835 12.703 15.3379C12.6822 15.3915 12.5892 15.4318 12.4851 15.4318C12.356 15.4318 12.2939 15.4675 12.2708 15.5566C12.2374 15.6843 11.7628 15.7391 11.5143 15.6437C11.3678 15.5875 11.3625 4.74523 11.5091 4.62342C11.5768 4.56717 11.6025 4.41816 11.6025 4.08477C11.6025 3.72306 11.6222 3.6236 11.6932 3.6236C11.7479 3.6236 11.8007 3.53606 11.8252 3.40494C11.8487 3.27978 11.903 3.18628 11.9528 3.18628C12.0101 3.18628 12.0391 3.11289 12.0391 2.96762C12.0391 2.83239 12.0867 2.70164 12.1641 2.62416C12.2325 2.55562 12.2887 2.4569 12.2887 2.4055C12.2887 2.35409 12.3311 2.31163 12.3824 2.31163C12.4337 2.31163 12.4761 2.26693 12.4761 2.21217C12.4761 2.15741 12.5319 2.09781 12.6007 2.07993C12.6893 2.05683 12.7254 1.99462 12.7254 1.86722C12.7254 1.74877 12.7573 1.68693 12.8191 1.68693C12.8712 1.68693 12.9128 1.63143 12.9128 1.56214C12.9128 1.49285 12.9541 1.43698 13.0062 1.43698C13.0575 1.43698 13.1561 1.3811 13.2245 1.31219C13.2933 1.24364 13.4053 1.18739 13.4741 1.18739C13.5433 1.18739 13.5987 1.14567 13.5987 1.09352C13.5987 1.04212 13.6377 0.999651 13.685 0.999651C13.7326 0.999651 13.7861 0.943402 13.804 0.87486C13.8278 0.783968 13.8892 0.750069 14.0298 0.750069C14.1596 0.750069 14.2228 0.719151 14.2228 0.656197C14.2228 0.591381 14.2875 0.562325 14.4337 0.562325C14.5921 0.562325 14.6528 0.531407 14.6773 0.437535C14.7045 0.333233 14.7625 0.312744 15.0277 0.312744Z" fill="white"/>
<path d="M6.88544 6.49751C6.93305 6.49751 6.98661 6.44126 7.00447 6.37272C7.03162 6.26842 7.08964 6.24756 7.35484 6.24756H7.67248V13.8005C7.67248 20.4565 7.68364 21.3576 7.76621 21.3893C7.83576 21.4161 7.85994 21.5275 7.85994 21.8262C7.85994 22.1742 7.87631 22.2312 7.98454 22.2595C8.07567 22.2833 8.10914 22.3448 8.10914 22.4875C8.10914 22.6033 8.14745 22.6972 8.20287 22.7188C8.2542 22.7385 8.2966 22.829 8.2966 22.9203C8.2966 23.0183 8.34756 23.1177 8.4212 23.1639C8.49187 23.2083 8.54581 23.3096 8.54581 23.3979C8.54581 23.4943 8.58152 23.5536 8.63954 23.5536C8.69087 23.5536 8.73327 23.5957 8.73327 23.6471C8.73327 23.6985 8.78943 23.7972 8.85787 23.8657C8.92668 23.9346 8.98247 24.0468 8.98247 24.1157C8.98247 24.185 9.02413 24.2405 9.0762 24.2405C9.12753 24.2405 9.16993 24.2829 9.16993 24.3344C9.16993 24.3865 9.22535 24.4282 9.29453 24.4282C9.37785 24.4282 9.41913 24.4696 9.41913 24.553C9.41913 24.6223 9.46079 24.6778 9.51286 24.6778C9.56419 24.6778 9.60659 24.7203 9.60659 24.7717C9.60659 24.8238 9.66201 24.8655 9.7312 24.8655C9.81451 24.8655 9.8558 24.9069 9.8558 24.9903C9.8558 25.0879 9.89746 25.1151 10.0451 25.1151C10.1556 25.1151 10.2489 25.1542 10.2701 25.209C10.2899 25.2604 10.3453 25.3029 10.3929 25.3029C10.4405 25.3029 10.4799 25.3587 10.4799 25.4277C10.4799 25.5286 10.5212 25.5525 10.6983 25.5525C10.8508 25.5525 10.9166 25.5808 10.9166 25.6463C10.9166 25.7093 10.9794 25.7402 11.1093 25.7402C11.2498 25.7402 11.3112 25.7741 11.335 25.865C11.3596 25.9589 11.4202 25.9898 11.5786 25.9898C11.7144 25.9898 11.7899 26.02 11.7899 26.0743C11.7899 26.1373 11.9458 26.1682 12.3958 26.195C12.8429 26.2219 13.0203 26.2572 13.0731 26.3295C13.1155 26.3872 13.2375 26.4271 13.3718 26.4271H13.5987V22.4912V18.5552H13.817C13.9941 18.5552 14.0353 18.5314 14.0353 18.4305C14.0353 18.3291 14.077 18.3053 14.2537 18.3053C14.4062 18.3053 14.472 18.2774 14.472 18.2118C14.472 18.1462 14.5378 18.1179 14.6903 18.1179C14.8674 18.1179 14.9087 18.0941 14.9087 17.9931C14.9087 17.8918 14.9503 17.868 15.127 17.868C15.2795 17.868 15.3453 17.84 15.3453 17.7745C15.3453 17.7089 15.4112 17.6806 15.5637 17.6806C15.7407 17.6806 15.782 17.6568 15.782 17.5558C15.782 17.4545 15.8237 17.4306 16.0003 17.4306C16.1528 17.4306 16.2187 17.4027 16.2187 17.3371C16.2187 17.2716 16.2845 17.2433 16.437 17.2433C16.614 17.2433 16.6553 17.2194 16.6553 17.1185C16.6553 17.0172 16.697 16.9933 16.8737 16.9933C17.0262 16.9933 17.092 16.9654 17.092 16.8998C17.092 16.8343 17.1578 16.8059 17.3103 16.8059C17.4874 16.8059 17.5286 16.7821 17.5286 16.6812C17.5286 16.5728 17.5703 16.556 17.8407 16.556H18.1528V22.4603C18.1528 27.6664 18.1416 28.3642 18.059 28.3642C17.988 28.3642 17.9653 28.4409 17.9653 28.6823C17.9653 28.9479 17.9449 29.006 17.8407 29.0332C17.747 29.0578 17.7161 29.1185 17.7161 29.2772C17.7161 29.4236 17.6871 29.4884 17.6224 29.4884C17.5595 29.4884 17.5286 29.5517 17.5286 29.6817C17.5286 29.8225 17.4948 29.884 17.404 29.9078C17.3349 29.9257 17.2794 29.9931 17.2794 30.0579C17.2794 30.1228 17.237 30.1757 17.1857 30.1757C17.1344 30.1757 17.092 30.2148 17.092 30.2621C17.092 30.3098 17.0358 30.3634 16.9674 30.3813C16.8986 30.3992 16.8428 30.4588 16.8428 30.5135C16.8428 30.5683 16.8004 30.613 16.7491 30.613C16.6977 30.613 16.6553 30.6555 16.6553 30.7069C16.6553 30.759 16.5999 30.8004 16.5307 30.8004C16.4474 30.8004 16.4061 30.8421 16.4061 30.9255C16.4061 30.9948 16.3645 31.0503 16.3124 31.0503C16.2611 31.0503 16.2187 31.0928 16.2187 31.1442C16.2187 31.1956 16.1658 31.2377 16.1015 31.2377C16.0364 31.2377 15.9691 31.2936 15.9512 31.3628C15.9274 31.4537 15.8661 31.4876 15.7255 31.4876C15.5957 31.4876 15.5328 31.5182 15.5328 31.5815C15.5328 31.6329 15.4807 31.675 15.4175 31.675C15.3543 31.675 15.2516 31.7313 15.1895 31.8002C15.1184 31.8788 14.9976 31.925 14.8637 31.925C14.7461 31.925 14.6081 31.9674 14.5568 32.0188C14.4155 32.1604 7.93656 32.1604 7.88226 32.0188C7.86031 31.9615 7.76584 31.925 7.63975 31.925C7.37158 31.925 7.23582 31.8706 7.23582 31.7622C7.23582 31.7145 7.18003 31.675 7.11122 31.675C7.04203 31.675 6.98661 31.6337 6.98661 31.5815C6.98661 31.5301 6.94421 31.4876 6.89288 31.4876C6.84081 31.4876 6.79915 31.4321 6.79915 31.3628C6.79915 31.2794 6.75787 31.2377 6.67455 31.2377C6.60537 31.2377 6.54995 31.1963 6.54995 31.1442C6.54995 31.0928 6.50755 31.0503 6.45622 31.0503C6.40415 31.0503 6.36249 30.9948 6.36249 30.9255C6.36249 30.8421 6.32121 30.8004 6.23789 30.8004C6.15457 30.8004 6.11329 30.759 6.11329 30.6756C6.11329 30.6063 6.07163 30.5508 6.01956 30.5508C5.95819 30.5508 5.92583 30.4889 5.92583 30.3705C5.92583 30.2427 5.88975 30.1809 5.80123 30.1578C5.71047 30.1339 5.67662 30.0725 5.67662 29.9317C5.67662 29.8017 5.64575 29.7383 5.58289 29.7383C5.53082 29.7383 5.48916 29.6828 5.48916 29.6135C5.48916 29.5446 5.45011 29.4884 5.4025 29.4884C5.30691 29.4884 5.23996 29.3573 5.23996 29.171C5.23996 29.1051 5.19756 29.0511 5.14623 29.0511C5.08151 29.0511 5.0525 28.9862 5.0525 28.8398C5.0525 28.6812 5.02163 28.6204 4.9279 28.5958C4.83714 28.572 4.8033 28.5105 4.8033 28.3697C4.8033 28.2397 4.77243 28.1764 4.70957 28.1764C4.6441 28.1764 4.61584 28.1105 4.61584 27.9577C4.61584 27.7808 4.5924 27.7391 4.49123 27.7391C4.41052 27.7391 4.36663 27.6977 4.36663 27.621C4.36663 27.5558 4.32423 27.4865 4.2729 27.4668C4.21934 27.4463 4.17917 27.3528 4.17917 27.2489C4.17917 27.1192 4.14347 27.057 4.05457 27.0339C3.96382 27.0101 3.92997 26.9486 3.92997 26.8078C3.92997 26.6778 3.8991 26.6148 3.83624 26.6148C3.77078 26.6148 3.74251 26.5489 3.74251 26.3962C3.74251 26.2189 3.71908 26.1775 3.61791 26.1775C3.51674 26.1775 3.49331 26.1358 3.49331 25.9589C3.49331 25.8061 3.46504 25.7402 3.39958 25.7402C3.34825 25.7402 3.30585 25.7011 3.30585 25.6538C3.30585 25.6061 3.24968 25.5525 3.18124 25.5346C3.09049 25.5107 3.05664 25.4493 3.05664 25.3085C3.05664 25.1785 3.02577 25.1151 2.96291 25.1151C2.89745 25.1151 2.86918 25.0492 2.86918 24.8965C2.86918 24.7195 2.84575 24.6778 2.74458 24.6778C2.66127 24.6778 2.61998 24.6365 2.61998 24.553C2.61998 24.4837 2.57832 24.4282 2.52625 24.4282C2.46079 24.4282 2.43252 24.3619 2.43252 24.2096C2.43252 24.0322 2.40909 23.9909 2.30792 23.9909C2.20675 23.9909 2.18332 23.9492 2.18332 23.7722C2.18332 23.6195 2.15505 23.5536 2.08959 23.5536C2.03826 23.5536 1.99586 23.513 1.99586 23.4638C1.99586 23.4146 1.93969 23.3565 1.87126 23.3349C1.78385 23.307 1.74665 23.2403 1.74665 23.1118C1.74665 22.9907 1.71467 22.9285 1.65292 22.9285C1.58746 22.9285 1.55919 22.8626 1.55919 22.7098C1.55919 22.5329 1.53576 22.4912 1.43459 22.4912C1.35128 22.4912 1.30999 22.4498 1.30999 22.3664C1.30999 22.2971 1.26833 22.2416 1.21626 22.2416C1.1508 22.2416 1.12253 22.1753 1.12253 22.0226C1.12253 21.8456 1.0991 21.8039 0.997929 21.8039C0.89676 21.8039 0.873327 21.7625 0.873327 21.5852C0.873327 21.4329 0.845059 21.3666 0.779597 21.3666C0.714135 21.3666 0.685866 21.3006 0.685866 21.1479C0.685866 20.971 0.662062 20.9292 0.561265 20.9292C0.460096 20.9292 0.436663 20.8879 0.436663 20.7106C0.436663 20.5582 0.408396 20.4919 0.342934 20.4919C0.278215 20.4919 0.249203 20.4271 0.249203 20.2807C0.249203 20.122 0.218332 20.0613 0.124602 20.0367C0.00669537 20.0058 0 19.9514 0 19.0611C0 18.1596 0.00520758 18.1179 0.124602 18.1179C0.234326 18.1179 0.249203 18.0766 0.249203 17.7745C0.249203 17.5107 0.271148 17.4306 0.342934 17.4306C0.408396 17.4306 0.436663 17.3647 0.436663 17.212C0.436663 17.035 0.460096 16.9933 0.561265 16.9933C0.662062 16.9933 0.685866 16.952 0.685866 16.7747C0.685866 16.6219 0.714135 16.556 0.779597 16.556C0.83762 16.556 0.873327 16.4971 0.873327 16.4007C0.873327 16.3124 0.927259 16.211 0.997929 16.1667C1.06637 16.1239 1.12253 16.0535 1.12253 16.0103C1.12253 15.9667 1.16493 15.9313 1.21626 15.9313C1.28172 15.9313 1.30999 15.8654 1.30999 15.7126C1.30999 15.5357 1.33342 15.494 1.43459 15.494C1.53576 15.494 1.55919 15.4522 1.55919 15.2753C1.55919 15.1226 1.58746 15.0566 1.65292 15.0566C1.705 15.0566 1.74665 15.0011 1.74665 14.9319C1.74665 14.8484 1.78794 14.8067 1.87126 14.8067C1.97242 14.8067 1.99586 14.7653 1.99586 14.588C1.99586 14.4353 2.02413 14.3694 2.08959 14.3694C2.15245 14.3694 2.18332 14.3064 2.18332 14.1764C2.18332 14.0356 2.21716 13.9741 2.30792 13.9503C2.3771 13.932 2.43252 13.865 2.43252 13.7998C2.43252 13.7354 2.47492 13.6825 2.52625 13.6825C2.58911 13.6825 2.61998 13.6191 2.61998 13.4891C2.61998 13.3483 2.65383 13.2869 2.74458 13.263C2.83162 13.2403 2.86918 13.1777 2.86918 13.057C2.86918 12.9605 2.91084 12.8674 2.96291 12.8477C3.01424 12.8279 3.05664 12.7687 3.05664 12.7158C3.05664 12.6618 3.11095 12.6201 3.18124 12.6201C3.28241 12.6201 3.30585 12.5787 3.30585 12.4014C3.30585 12.2487 3.33411 12.1827 3.39958 12.1827C3.46504 12.1827 3.49331 12.1168 3.49331 11.9641C3.49331 11.7871 3.51674 11.7454 3.61791 11.7454C3.70122 11.7454 3.74251 11.7041 3.74251 11.6206C3.74251 11.5513 3.78417 11.4958 3.83624 11.4958C3.9017 11.4958 3.92997 11.4299 3.92997 11.2772C3.92997 11.0999 3.9534 11.0585 4.05457 11.0585C4.15574 11.0585 4.17917 11.0168 4.17917 10.8398C4.17917 10.6871 4.20744 10.6212 4.2729 10.6212C4.33576 10.6212 4.36663 10.5579 4.36663 10.4279C4.36663 10.287 4.40048 10.2256 4.49123 10.2017C4.58496 10.1772 4.61584 10.1164 4.61584 9.95774C4.61584 9.81135 4.64485 9.74653 4.70957 9.74653C4.76759 9.74653 4.8033 9.6873 4.8033 9.59082C4.8033 9.50254 4.85723 9.40122 4.9279 9.35689C4.99634 9.31405 5.0525 9.24365 5.0525 9.20043C5.0525 9.15685 5.0949 9.12146 5.14623 9.12146C5.21169 9.12146 5.23996 9.05553 5.23996 8.9028C5.23996 8.72586 5.26339 8.68414 5.36456 8.68414C5.46573 8.68414 5.48916 8.64279 5.48916 8.46547C5.48916 8.32057 5.51855 8.24681 5.57583 8.24681C5.62567 8.24681 5.67997 8.15368 5.7034 8.02815C5.72795 7.8974 5.78077 7.80948 5.83507 7.80948C5.88529 7.80948 5.92583 7.75324 5.92583 7.68469C5.92583 7.61541 5.96748 7.5599 6.01956 7.5599C6.07089 7.5599 6.11329 7.50589 6.11329 7.43996C6.11329 7.2537 6.18024 7.12221 6.27583 7.12221C6.32344 7.12221 6.36249 7.08011 6.36249 7.02871C6.36249 6.9773 6.40489 6.93483 6.45622 6.93483C6.50829 6.93483 6.54995 6.87933 6.54995 6.81004C6.54995 6.7266 6.59124 6.68488 6.67455 6.68488C6.74373 6.68488 6.79915 6.64353 6.79915 6.59138C6.79915 6.53997 6.83821 6.49751 6.88544 6.49751Z" fill="white"/>
</svg>
