<svg width="319" height="320" viewBox="0 0 319 320" fill="none" xmlns="http://www.w3.org/2000/svg">
<rect width="319" height="320" fill="white"/>
<path d="M162.128 150.271C161.936 149.484 161.306 146.392 161.306 146.392C161.306 146.392 160.59 144.249 160.415 143.694C160.24 143.126 159.873 141.872 159.593 140.895C159.156 139.334 158.544 135.455 158.544 135.455C158.142 132.437 158.282 129.287 158.981 126.53C159.593 124.066 161.411 120.099 163.159 117.3C164.191 115.681 167.127 112.283 167.127 112.283C167.127 112.283 167.63 111.776 167.949 111.452L168.84 110.737L168.281 111.539C167.529 112.589 165.799 115.593 165.239 116.789C163.701 120.041 163.124 122.739 163.124 126.414C163.138 128.334 163.119 132.003 163.34 133.793C163.42 134.443 163.681 135.053 163.908 135.668C164.274 136.661 164.832 138.187 165.047 138.838C165.344 139.743 166.236 142.207 166.236 142.207L166.76 144.088C166.76 144.088 167.931 147.296 168.159 148.303C168.858 151.248 169.05 152.998 169.033 156.09C169.033 158.54 168.963 159.254 168.648 160.508C167.757 163.935 165.869 167.114 162.53 170.819C160.834 172.7 157.688 175.85 157.495 175.85C157.46 175.85 157.548 175.602 157.705 175.295C160.187 170.541 162.145 165.131 162.757 161.296C163.247 158.277 162.984 153.655 162.128 150.271Z" fill="#05B7DF"/>
<path d="M153.622 115.969C157.29 111.906 162.547 108.004 169.883 103.898C170.766 103.4 171.49 103 171.507 103C171.582 103 171.38 103.161 170.287 103.947C162.118 109.814 157.046 115.632 154.623 121.892C153.815 123.983 153.319 125.934 153.058 128.018C152.89 129.359 152.882 132.503 153.05 134.054C153.235 135.738 153.689 138.012 153.689 138.012C153.689 138.601 155.7 145.809 155.902 145.991C155.876 146.054 157.264 150.433 158.148 153.03C158.19 153.163 158.215 153.29 158.198 153.304C158.072 153.409 153.386 147.198 153.159 146.623C153.168 146.616 152.31 145.31 151.973 144.749C150.879 142.875 150.131 141.401 149.441 139.752C149.189 139.163 149.094 138.975 149.094 138.975C149.094 138.975 148.701 137.836 148.591 137.492C145.992 129.52 147.599 122.636 153.622 115.969Z" fill="#002A6E"/>
<path d="M151.532 138.552C151.54 138.552 156.184 137.107 156.184 137.107C156.184 137.107 159.549 135.892 159.801 135.738C159.801 135.738 164.108 133.724 165.025 133.163C165.337 132.98 165.614 132.826 165.648 132.826C165.681 132.826 166.153 132.531 166.699 132.166C168.929 130.671 170.476 129.064 170.939 127.78C171.133 127.239 171.116 126.327 170.906 125.836C170.493 124.839 169.366 124.06 167.456 123.45L166.741 123.218L167.414 123.211C168.828 123.211 171.326 123.513 172.638 123.85C176.718 124.903 177.333 127.478 174.161 130.278L173.749 130.643L174.035 130.678C177.307 131.071 179.04 131.598 180.075 132.524C180.689 133.071 180.916 133.534 180.916 134.25C180.916 135.219 180.479 136.04 179.41 137.121C177.602 138.938 174.708 140.686 170.502 142.496C166.884 144.047 164.428 144.868 159.894 146.026C159.229 146.195 155.879 146.975 155.879 146.975C155.879 146.975 155.662 147.009 155.166 147.093C150.632 147.921 147.376 148.3 144.407 148.37C142.808 148.405 142.741 148.419 145.542 148.082C147.284 147.879 149.715 147.479 151.473 147.107C152.516 146.889 155.275 146.237 155.309 146.209C155.393 146.279 161.164 144.44 161.98 144.082C162.274 143.949 162.552 143.844 162.602 143.844C162.72 143.844 166.169 142.412 166.741 142.124C167.019 141.984 167.49 141.752 167.793 141.619C171.124 140.089 174.422 137.556 175.398 135.773C175.961 134.742 176.012 133.731 175.541 132.931C175.221 132.384 174.523 131.794 173.766 131.422C173.463 131.268 173.177 131.141 173.126 131.148C173.084 131.148 172.807 131.324 172.504 131.534C170.426 132.994 166.523 134.959 163.376 136.117C161.225 136.914 161.214 136.917 158.151 137.823L158.035 137.857C157.32 138.068 151.809 139.429 151.734 139.45C150.699 139.71 147.881 140.201 145.921 140.468C143.288 140.826 140.587 141.044 138.88 141.029L138.055 141.022L139.359 140.896C142.699 140.566 147.166 139.745 150.337 138.889L151.532 138.552Z" fill="#002A6E"/>
<path d="M59 203.221V216.965H61.3026C62.5333 216.965 63.8037 216.833 64.0419 216.7C64.3992 216.502 64.558 214.846 64.6374 211.004L64.7565 205.539L75.3563 205.44L85.9958 205.374L86.0752 211.07L86.1943 216.8H88.9733H91.7523L91.8714 203.122L91.9508 189.477H88.9733H85.9958V195.107V200.737H75.2769H64.558V195.107V189.477H61.779H59V203.221Z" fill="#002A6E"/>
<path d="M108.816 190.277C105.243 191.337 103.695 192.264 102.027 194.285C98.8512 198.093 98.8115 198.226 98.8115 208.029V216.805H101.392H103.972L104.092 213.394L104.211 210.016L114.811 210.082L125.41 210.182L125.529 213.328C125.609 215.315 125.807 216.54 126.125 216.706C126.681 217.004 130.055 217.07 130.929 216.772C131.484 216.607 131.564 215.149 131.564 203.757C131.564 193.225 131.445 190.807 131.008 190.277C130.492 189.681 129.817 189.648 120.964 189.549C111.833 189.483 111.436 189.516 108.816 190.277ZM125.609 199.749V205.048H114.85H104.052L104.29 202.432C104.528 199.517 104.846 198.789 106.95 196.967C109.332 194.914 111.515 194.483 119.177 194.45H125.609V199.749Z" fill="#002A6E"/>
<path d="M138.513 203.13L138.632 216.808H141.213H143.793L143.912 203.13L143.992 189.485H141.213H138.434L138.513 203.13Z" fill="#002A6E"/>
<path d="M151.657 190.18C150.903 190.875 150.863 191.471 150.863 203.129V215.317L151.776 216.079C152.65 216.807 152.967 216.84 160.669 216.94C169.919 217.072 173.929 216.708 177.025 215.482C179.646 214.456 180.757 213.462 182.385 210.614C183.417 208.859 183.616 208.031 183.854 205.083C184.211 199.85 183.576 197.201 181.234 193.823C180.241 192.399 179.288 191.77 176.47 190.577L175.934 190.358C174.845 189.912 173.682 189.678 172.506 189.667L163.369 189.584C152.57 189.484 152.412 189.484 151.657 190.18ZM173.929 195.115C175.437 195.678 177.656 197.783 177.835 198.53C177.993 199.188 178.256 199.85 178.256 203.129C178.256 206.487 178.256 207.532 177.439 208.641C176.512 209.901 175.19 210.877 173.721 211.416C172.13 212.001 170.179 211.995 163.567 211.972L157.215 211.873L157.096 203.162L157.017 194.485H164.639C171.269 194.485 172.539 194.585 173.929 195.115Z" fill="#002A6E"/>
<path d="M191.595 190.147C190.84 190.776 190.801 191.24 190.801 201.01C190.801 214.026 191.039 214.688 195.763 216.178C197.55 216.741 198.939 216.808 209.261 216.808H220.774V214.489V212.171L209.341 212.005C198.582 211.84 197.828 211.807 197.312 211.211C196.875 210.681 196.756 208.925 196.756 202.5V194.453L208.785 194.386L220.774 194.287V191.969V189.65L206.601 189.551C192.825 189.485 192.389 189.485 191.595 190.147Z" fill="#002A6E"/>
<path d="M224.151 189.743C224.151 189.876 224.865 190.605 225.699 191.333C227.168 192.559 232.964 198.255 233.877 199.348C234.116 199.613 235.029 200.474 235.981 201.302C236.895 202.097 237.649 202.892 237.649 203.057C237.649 203.388 235.505 205.673 233.719 207.23C233.123 207.76 231.416 209.416 229.947 210.873C228.518 212.33 226.612 214.152 225.739 214.947C224.865 215.741 224.151 216.503 224.151 216.669C224.151 216.868 225.739 217 227.764 217H231.337L233.798 214.88C235.148 213.721 237.331 211.635 238.641 210.244C239.951 208.886 241.261 207.661 241.579 207.561C242.214 207.363 244.239 209.052 247.613 212.661C251.186 216.47 252.1 216.934 255.871 216.934C259.444 216.934 260.476 216.636 259.126 215.973C258.65 215.708 257.3 214.45 256.109 213.191C254.958 211.9 253.052 210.045 251.901 209.052C250.71 208.058 249.479 206.899 249.162 206.501C248.844 206.104 247.971 205.21 247.296 204.481L245.986 203.156L247.494 201.567C248.288 200.706 249.4 199.613 249.956 199.116C252.655 196.698 255.911 193.519 255.911 193.254C255.911 193.122 256.824 192.194 257.935 191.234L260 189.512H256.03H252.06L250.591 190.704C249.797 191.333 248.447 192.658 247.613 193.585C246.78 194.546 245.112 196.168 243.921 197.228L241.738 199.182L238.8 196.301C237.172 194.711 235.704 193.188 235.505 192.923C235.307 192.625 234.354 191.764 233.361 190.969L231.535 189.512H227.843C225.818 189.512 224.151 189.611 224.151 189.743Z" fill="#002A6E"/>
<path d="M199.14 203.09V205.408H208.47H217.799V203.09V200.772H208.47H199.14V203.09Z" fill="#002A6E"/>
</svg>
